<?xml version="1.0" standalone="no"?><!DOCTYPE svg PUBLIC "-//W3C//DTD SVG 1.1//EN" "http://www.w3.org/Graphics/SVG/1.1/DTD/svg11.dtd"><svg t="1514296930437" class="icon" style="" viewBox="0 0 1024 1024" version="1.1" xmlns="http://www.w3.org/2000/svg" p-id="1049" xmlns:xlink="http://www.w3.org/1999/xlink" width="200" height="200"><defs><style type="text/css"></style></defs><path d="M853.332553 614.399063V341.333333C853.332553 152.813865 700.517126 0 511.999219 0S170.667447 152.813865 170.667447 341.333333v273.06573L34.133802 887.464793h310.646877c15.803915 77.892063 84.650892 136.533646 167.21854 136.533645s151.414625-58.641583 167.21854-136.533645h310.646878l-136.532084-273.06573zM511.999219 955.730835c-44.510196 0-82.02107-28.568856-96.119661-68.266042h192.272117C594.021851 927.161979 556.509416 955.730835 511.999219 955.730835zM136.534426 819.197189L238.933489 614.399063V341.333333c0-150.800896 122.264834-273.06573 273.06573-273.065729 150.799334 0 273.06573 122.264834 273.06573 273.065729v273.06573l102.399063 204.799688H136.534426z" p-id="1050" fill="#ffffff"></path></svg>